<?xml version="1.0" standalone="no"?><!DOCTYPE svg PUBLIC "-//W3C//DTD SVG 1.1//EN" "http://www.w3.org/Graphics/SVG/1.1/DTD/svg11.dtd"><svg t="1491559880220" class="icon" style="" viewBox="0 0 1024 1024" version="1.1" xmlns="http://www.w3.org/2000/svg" p-id="11793" xmlns:xlink="http://www.w3.org/1999/xlink" width="200" height="200"><defs><style type="text/css"></style></defs><path d="M512.227 31c-265.087 0-480 214.848-480 480 0 265.088 214.912 480 480 480 265.152 0 480-214.912 480-480C992.227 245.848 777.379 31 512.227 31zM736.227 543l-192 0 0 192c0 17.664-14.336 32-32 32s-32-14.336-32-32L480.227 543l-192 0c-17.664 0-32-14.336-32-32s14.336-32 32-32l192 0L480.227 287c0-17.664 14.336-32 32-32s32 14.336 32 32l0 192 192 0c17.664 0 32 14.336 32 32S753.891 543 736.227 543z" p-id="11794" fill="#1296db"></path></svg>