<?xml version="1.0" standalone="no"?><!DOCTYPE svg PUBLIC "-//W3C//DTD SVG 1.1//EN" "http://www.w3.org/Graphics/SVG/1.1/DTD/svg11.dtd"><svg t="1493707346107" class="icon" style="" viewBox="0 0 1024 1024" version="1.1" xmlns="http://www.w3.org/2000/svg" p-id="2527" xmlns:xlink="http://www.w3.org/1999/xlink" width="200" height="200"><defs><style type="text/css"></style></defs><path d="M901.444608 401.168384 623.50336 401.168384 623.50336 123.222016c0-30.671872-24.870912-55.586816-55.584768-55.586816L456.733696 67.6352c-30.73024 0-55.583744 24.916992-55.583744 55.586816l0 277.946368L123.198464 401.168384c-30.727168 0-55.580672 24.869888-55.580672 55.589888l0 111.177728c0 30.732288 24.861696 55.58784 55.580672 55.58784l277.952512 0 0 277.946368c0 30.734336 24.86272 55.589888 55.583744 55.589888l111.183872 0c30.724096 0 55.584768-24.863744 55.584768-55.589888L623.50336 623.522816l277.946368 0c30.726144 0 55.585792-24.86784 55.585792-55.58784L957.03552 456.757248C957.036544 426.036224 932.166656 401.168384 901.444608 401.168384z" p-id="2528" fill="#ffffff"></path></svg>