<?xml version="1.0" standalone="no"?><!DOCTYPE svg PUBLIC "-//W3C//DTD SVG 1.1//EN" "http://www.w3.org/Graphics/SVG/1.1/DTD/svg11.dtd"><svg t="1490867228320" class="icon" style="" viewBox="0 0 1024 1024" version="1.1" xmlns="http://www.w3.org/2000/svg" p-id="2366" xmlns:xlink="http://www.w3.org/1999/xlink" width="200" height="200"><defs><style type="text/css"></style></defs><path d="M1019.680768 477.691904c0-227.627008-227.328-412.839936-506.76736-412.839936-279.437312 0-506.765312 185.212928-506.765312 412.839936 0 227.612672 227.325952 412.817408 506.765312 412.817408 68.716544 0 135.749632-11.278336 199.417856-33.583104l269.811712 102.219776-49.19296-250.966016C989.73696 639.729664 1019.680768 560.285696 1019.680768 477.691904zM733.452288 801.175552c-6.801408-2.578432-13.959168-3.868672-21.121024-3.868672-6.662144 0-13.328384 1.118208-19.712 3.352576-57.26208 20.06016-117.725184 30.230528-179.705856 30.230528-246.556672 0-447.143936-158.44352-447.143936-353.19808 0-194.766848 200.589312-353.220608 447.143936-353.220608 246.55872 0 447.148032 158.45376 447.148032 353.220608 0 68.319232-25.2416 134.858752-72.996864 192.421888-11.431936 13.778944-16.064512 31.965184-12.621824 49.534976l28.571648 145.764352L733.452288 801.175552z" p-id="2367" fill="#1296db"></path><path d="M763.123712 529.616896c-15.02208-6.56384-32.575488 0.27648-39.213056 15.29856-1.65888 3.710976-41.658368 90.957824-154.318848 101.496832-153.765888 14.395392-217.372672-23.826432-219.236352-24.977408-13.623296-9.039872-31.905792-5.429248-41.105408 8.062976-9.285632 13.60896-5.763072 32.1536 7.831552 41.41056 6.637568 4.511744 60.57984 38.426624 184.971264 38.426624 22.095872 0 46.432256-1.077248 73.068544-3.565568 148.815872-13.914112 201.304064-132.10624 203.487232-137.127936C785.074176 553.5744 778.145792 536.180736 763.123712 529.616896z" p-id="2368" fill="#1296db"></path><path d="M602.165248 426.237952l89.42592 0c16.463872 0 29.810688-13.344768 29.810688-29.810688 0-16.46592-13.346816-29.810688-29.810688-29.810688l-89.42592 0c-16.463872 0-29.810688 13.344768-29.810688 29.810688C572.352512 412.893184 585.701376 426.237952 602.165248 426.237952z" p-id="2369" fill="#1296db"></path><path d="M363.685888 456.046592c16.463872 0 29.810688-13.346816 29.810688-29.810688l0-89.427968c0-16.461824-13.344768-29.810688-29.810688-29.810688-16.463872 0-29.810688 13.346816-29.810688 29.810688l0 89.427968C333.8752 442.699776 347.219968 456.046592 363.685888 456.046592z" p-id="2370" fill="#1296db"></path></svg>