<?xml version="1.0" standalone="no"?><!DOCTYPE svg PUBLIC "-//W3C//DTD SVG 1.1//EN" "http://www.w3.org/Graphics/SVG/1.1/DTD/svg11.dtd"><svg t="1494339404343" class="icon" style="" viewBox="0 0 1024 1024" version="1.1" xmlns="http://www.w3.org/2000/svg" p-id="18627" xmlns:xlink="http://www.w3.org/1999/xlink" width="200" height="200"><defs><style type="text/css"></style></defs><path d="M74.83 515.938h143.755v368.247H74.83z m246.155-135.876h143.753v504.123H320.985z m256 78.769h143.753v427.323H576.985z m228.43-191.016H949.17v616.37H805.415z" fill="#06E0D3" p-id="18628"></path><path d="M876.308 21.662c-35.446 0-64.985 29.538-64.985 64.984 0 3.939 1.97 5.908 1.97 9.846l-128 124.062c-9.847-5.908-21.662-11.816-33.478-11.816-25.6 0-45.292 13.785-55.138 35.447l-143.754-29.539c-7.877-25.6-31.508-45.292-61.046-45.292-31.508 0-55.139 23.63-61.046 53.17l-145.723 86.645c-9.846-7.877-23.631-13.784-37.416-13.784-35.446 0-64.984 29.538-64.984 64.984s29.538 64.985 64.984 64.985c31.508 0 55.139-23.63 61.046-53.17l145.724-86.646c9.846 7.877 23.63 13.785 37.415 13.785 17.723 0 33.477-7.877 43.323-17.723l167.385 33.477c11.815 13.785 27.569 23.63 47.261 23.63 31.508 0 57.108-23.63 61.046-53.169l143.754-133.907c5.908 1.969 11.816 3.938 19.692 3.938 35.447 0 64.985-29.538 64.985-64.984 1.97-41.354-27.57-68.923-63.015-68.923zM74.83 925.538H947.2v78.77H74.83z" fill="#06E0D3" p-id="18629"></path></svg>