<?xml version="1.0" standalone="no"?><!DOCTYPE svg PUBLIC "-//W3C//DTD SVG 1.1//EN" "http://www.w3.org/Graphics/SVG/1.1/DTD/svg11.dtd"><svg t="1495000061818" class="icon" style="" viewBox="0 0 1024 1024" version="1.1" xmlns="http://www.w3.org/2000/svg" p-id="2338" xmlns:xlink="http://www.w3.org/1999/xlink" width="200" height="200"><defs><style type="text/css"></style></defs><path d="M507.424 676.576l66.272-66.272-86.848-86.848-66.272 66.272 0 32 54.848 0 0 54.848 32 0zM758.848 265.152q-9.152-9.152-18.848 0.576l-200 200q-9.728 9.728-0.576 18.848t18.848-0.576l200-200q9.728-9.728 0.576-18.848zM804.576 604.576l0 108.576q0 68-48.288 116.288t-116.288 48.288l-475.424 0q-68 0-116.288-48.288t-48.288-116.288l0-475.424q0-68 48.288-116.288t116.288-48.288l475.424 0q36 0 66.848 14.272 8.576 4 10.272 13.152 1.728 9.728-5.152 16.576l-28 28q-8 8-18.272 4.576-13.152-3.424-25.728-3.424l-475.424 0q-37.728 0-64.576 26.848t-26.848 64.576l0 475.424q0 37.728 26.848 64.576t64.576 26.848l475.424 0q37.728 0 64.576-26.848t26.848-64.576l0-72q0-7.424 5.152-12.576l36.576-36.576q8.576-8.576 20-4t11.424 16.576zM749.728 182.848l164.576 164.576-384 384-164.576 0 0-164.576zM1003.424 258.272l-52.576 52.576-164.576-164.576 52.576-52.576q16-16 38.848-16t38.848 16l86.848 86.848q16 16 16 38.848t-16 38.848z" p-id="2339" fill="#11BB30"></path></svg>