<?xml version="1.0" standalone="no"?><!DOCTYPE svg PUBLIC "-//W3C//DTD SVG 1.1//EN" "http://www.w3.org/Graphics/SVG/1.1/DTD/svg11.dtd"><svg t="1491557775538" class="icon" style="" viewBox="0 0 1024 1024" version="1.1" xmlns="http://www.w3.org/2000/svg" p-id="11120" xmlns:xlink="http://www.w3.org/1999/xlink" width="200" height="200"><defs><style type="text/css"></style></defs><path d="M551.872969 724.111997c0.853184 0.091561 3.84141-1.523246 8.319587-4.245112a241.929744 241.929744 0 0 1-46.887674 4.902688c12.801925 0.074914 25.574717-0.120694 38.568087-0.657576zM483.92205 724.111997c7.703629 0.316302 15.319859 0.486939 22.915279 0.595148a242.345931 242.345931 0 0 1-26.18235-1.910301c1.66475 0.890641 2.796779 1.369257 3.267071 1.315153z" fill="#D6E079" p-id="11121"></path><path d="M511.411229 0c-282.424779 0-511.411095 228.986315-511.411095 511.411095 0 173.958015 86.89577 327.614409 219.622099 419.999691 25.78281-89.779949 90.762151-157.485318 179.222786-188.607813-22.819556-35.080437-31.026772-54.96171-30.019598-64.767085a242.129514 242.129514 0 0 1-51.623887-51.711286c-250.490719-28.783522-36.037668-532.424397 194.446922-411.263917 1.84371-0.969717 3.68742-1.901976 5.531131-2.792618 50.421105-24.40523 99.643591-19.410981 143.176794 3.525107 18.591092-21.354576 41.92672-37.369468 47.715887-21.612612l17.338368 47.187329 16.426917 45.002345c0.620119 0.790756 1.240238 1.581512 1.856196 2.380592l48.369301 9.006296 49.430579 9.201903c25.362461 4.757022-16.314547 62.860947-44.03679 78.492947 41.606256 110.10238 26.640156 229.548168-92.085627 241.218063a242.042115 242.042115 0 0 1-42.571811 44.552863c9.360055 4.732051 4.723727 25.304195-28.35901 75.433969 83.175055 32.612446 144.158997 98.407514 168.959604 184.612413 132.613958-92.40193 219.42649-245.991733 219.426491-419.866511C1022.818162 228.982154 793.836008 0 511.411229 0z" fill="#D6E079" p-id="11122"></path><path d="M480.654979 722.796844a242.345931 242.345931 0 0 0 26.18235 1.910301c2.160013 0.029133 4.315863 0.054104 6.471715 0.06659a241.638413 241.638413 0 0 0 46.887674-4.902688c23.031812-13.975573 85.680503-57.188313 102.602683-48.643985a241.904773 241.904773 0 0 0 42.571811-44.552863 197.476766 197.476766 0 0 1-17.005418 0.936422c34.801592-50.375325 52.49788-112.541239 42.001634-193.826803l-216.35919 1.061278-218.132147-1.061278c-10.500408 81.285564 7.19588 143.451478 41.997472 193.826803a200.52742 200.52742 0 0 1-20.672029-1.286019 242.033791 242.033791 0 0 0 51.623887 51.711286c3.088111-30.102836 92.826441 34.605984 111.829558 44.760956z" fill="#FCE9EA" p-id="11123"></path><path d="M634.436229 746.661031l-0.68671 1.048792-115.849928-0.120694-115.849929 0.120694c-1.115382-1.681397-2.155851-3.287881-3.208805-4.911011-88.456473 31.126657-153.435814 98.827863-179.222786 188.607812 82.758867 57.608662 183.322232 91.411404 291.788996 91.411404 108.554163 0 209.192442-33.856846 291.984604-91.544584-24.796446-86.204899-85.780388-151.999967-168.955442-184.612413z" fill="#A0D9F6" p-id="11124"></path><path d="M517.899591 747.589129l115.849928 0.120694 0.68671-1.048792c33.082738-50.129774 37.719065-70.701918 28.35901-75.433969-16.92218-8.548489-79.570872 34.66425-102.602683 48.643985-4.478177 2.717704-7.466402 4.336673-8.319587 4.245112a815.25704 815.25704 0 0 1-45.039802 0.590986 820.288746 820.288746 0 0 1-22.915279-0.595148c-0.470292 0.054104-1.602322-0.428673-3.267071-1.315153-19.003117-10.150811-108.741448-74.85963-111.83372-44.760956-1.007174 9.801214 7.200042 29.686648 30.019598 64.767085 1.052954 1.623131 2.089261 3.225452 3.208805 4.911012l115.854091-0.124856z" fill="#FEFEFE" p-id="11125"></path><path d="M743.439874 288.709209l0.258037 0.045781a361.600273 361.600273 0 0 0-1.856196-2.380592l0.19977 0.545205 1.398389 1.789606zM660.090021 216.092829l0.262198-0.299655c-43.533204-22.931927-92.755689-27.930337-143.176794-3.525107 50.138098-24.247079 99.310641-19.157107 142.914596 3.824762zM295.871929 433.783818l218.132148 1.061278-2.59701-0.116532V214.944152l0.237227 0.116533c-230.48459-121.16048-444.933479 382.480396-194.446922 411.263917a200.602334 200.602334 0 0 0 20.672029 1.286019c-34.801592-50.375325-52.493719-112.541239-41.997472-193.826803z" fill="#FBCE77" p-id="11126"></path><path d="M742.037323 286.919603l0.59931 1.639779 0.803241 0.149827-1.402551-1.789606zM511.411229 434.724402l2.597009 0.116532 216.35919-1.061278c10.496247 81.285564-7.19588 143.451478-42.001634 193.826803a197.476766 197.476766 0 0 0 17.005418-0.936422c118.725784-11.674057 133.691883-131.115683 92.085627-241.218063-9.418321 5.310551-17.234321 5.739224-20.25168-2.517934l-17.346691-47.187329-17.225997-47.187329-49.430579-9.085371-49.43058-9.201904c-17.396634-3.262909-3.229614-31.62192 16.318709-54.18344-43.608117-22.977707-92.776498-28.071841-142.914596-3.8206-1.84371 0.890641-3.68742 1.822901-5.531131 2.792618l-0.237227-0.116533v219.78025z" fill="#F7B970" p-id="11127"></path><path d="M742.632471 288.559382l17.225997 47.187329 17.346691 47.187329c3.021521 8.257158 10.83752 7.828485 20.25168 2.517934 27.722244-15.631999 69.399251-73.735924 44.03679-78.492947l-49.430579-9.201903-48.369301-9.006296-0.258036-0.045781-0.803242-0.145665zM643.771312 270.272107l49.43058 9.201904 49.430579 9.085371-0.59931-1.639779-0.19977-0.545205-16.426917-45.002345-17.338368-47.187329c-5.789167-15.756856-29.124795 0.258036-47.715887 21.612612l-0.262198 0.299655c-19.548323 22.557358-33.711181 50.916368-16.318709 54.175116z" fill="#A0D9F6" p-id="11128"></path></svg>