<?xml version="1.0" standalone="no"?><!DOCTYPE svg PUBLIC "-//W3C//DTD SVG 1.1//EN" "http://www.w3.org/Graphics/SVG/1.1/DTD/svg11.dtd"><svg t="1493729476766" class="icon" style="" viewBox="0 0 1025 1024" version="1.1" xmlns="http://www.w3.org/2000/svg" p-id="3629" xmlns:xlink="http://www.w3.org/1999/xlink" width="200.1953125" height="200"><defs><style type="text/css"></style></defs><path d="M962.262 327.285l-47.155 0L678.738 79.42c1.545-4.582 2.562-9.415 2.562-14.527 0-25.572-20.73-46.302-46.302-46.302-25.564 0-46.308 20.73-46.308 46.302 0 5.112 1.018 9.958 2.562 14.527L153.51 327.285l-47.156 0c-34.093 0-61.738 27.645-61.738 61.737L0 944.671c0 34.093 27.645 61.737 61.738 61.737l864.349 0c34.093 0 61.738-27.645 61.738-61.737l36.175-555.648C1024 354.93 996.355 327.285 962.262 327.285zM609.991 103.778c7.225 4.644 15.775 7.423 25.008 7.423 9.227 0 17.777-2.779 25.002-7.423L862.86 327.285 205.771 327.285 609.991 103.778zM941.523 944.671c0 8.52-6.929 15.436-15.436 15.436L61.738 960.107c-8.502 0-15.436-6.915-15.436-15.436l44.616-555.648c0-8.52 6.934-15.436 15.436-15.436l855.908 0c8.507 0 15.436 6.915 15.436 15.436L941.523 944.671zM915.96 404.458 152.662 404.458c-17.042 0-30.872 13.83-30.872 30.872L77.174 898.369c0 17.036 13.83 30.866 30.872 30.866l771.739 0c17.036 0 30.866-13.83 30.866-30.866l36.175-463.039C946.826 418.288 932.996 404.458 915.96 404.458zM373.464 797.137l-40.186 0 20.152-114.278L216.548 682.859l-20.152 114.278-38.93 0 45.385-257.439 38.93 0-19.269 109.255 136.882 0 19.269-109.255 40.186 0L373.464 797.137zM466.699 795.881l-38.93 0 32.553-184.602 38.93 0L466.699 795.881zM505.452 576.116l-38.93 0 6.868-38.93 38.93 0L505.452 576.116zM620.86 641.418c-27.942 1.688-45.64 21.349-53.097 59.023l-16.836 95.441-37.674 0 32.553-184.602 37.674 0-6.201 35.162c13.775-25.94 32.474-39.342 56.06-40.185 10.87 0 21.584 3.355 32.141 10.046l-19.798 33.907C640.011 644.361 631.731 641.418 620.86 641.418zM850.546 706.719c-0.746 4.199-1.334 7.535-1.766 10.046L700.596 716.765c-4.67 36.006 11.185 55.255 47.583 57.767 27.765-0.824 46.994-12.558 57.688-35.162l39.067 6.279c-19.897 36.83-53.685 55.255-101.406 55.255-61.515-2.512-88.22-33.907-80.096-94.185 13.873-64.458 50.762-97.952 110.648-100.464C835.889 607.099 861.377 640.594 850.546 706.719zM771.725 633.883c-35.476 1.688-57.629 20.525-66.479 56.511l110.51 0C820.427 654.407 805.749 635.57 771.725 633.883z" p-id="3630" fill="#11BB30"></path></svg>