<?xml version="1.0" standalone="no"?><!DOCTYPE svg PUBLIC "-//W3C//DTD SVG 1.1//EN" "http://www.w3.org/Graphics/SVG/1.1/DTD/svg11.dtd"><svg t="1494339303507" class="icon" style="" viewBox="0 0 1024 1024" version="1.1" xmlns="http://www.w3.org/2000/svg" p-id="17372" xmlns:xlink="http://www.w3.org/1999/xlink" width="200" height="200"><defs><style type="text/css"></style></defs><path d="M222.592 244.864h601.024v22.272H222.592z" fill="#1888FF" p-id="17373"></path><path d="M734.592 623.296a111.36 111.36 0 1 0 0.064 222.72 111.36 111.36 0 0 0-0.064-222.72z m0 178.112a66.752 66.752 0 1 1 0-133.504 66.752 66.752 0 0 1 0 133.504z" fill="#FD9E1B" p-id="17374"></path><path d="M1024 645.568h-74.368l52.608-52.608-125.952-125.952-52.608 52.608V445.248h-178.112V519.68l-52.608-52.672-125.952 125.952 52.608 52.608H445.248v178.112H519.68l-52.608 52.608 125.952 125.952 52.608-52.608V1024h178.112v-74.432l52.608 52.608 125.952-125.952-52.608-52.608H1024v-178.048z m-44.544 133.568h-49.472a199.424 199.424 0 0 1-25.728 62.144l35.008 35.008-62.976 62.976-35.008-35.008a198.848 198.848 0 0 1-62.144 25.728v49.472h-89.024v-49.472a198.848 198.848 0 0 1-62.144-25.728l-35.008 35.008-62.976-62.976 35.008-35.008a198.848 198.848 0 0 1-25.728-62.144h-49.536v-89.024h49.472c5.056-22.336 13.888-43.328 25.728-62.144l-34.944-35.008 62.976-62.976 35.008 35.008c18.816-11.84 39.744-20.672 62.144-25.728v-49.536h89.024v49.472c22.4 5.056 43.328 13.888 62.144 25.728l35.008-35.008 62.976 62.976-35.008 35.008c11.84 18.816 20.672 39.744 25.728 62.144h49.472v89.088z" fill="#FD9E1B" p-id="17375"></path><path d="M44.544 44.544h645.568v66.752h44.48V0H0v779.136h111.296v-44.544H44.544z" fill="#1888FF" p-id="17376"></path><path d="M200.384 200.32h645.504v200.384h44.544V155.84H155.84v779.136h267.136v-44.544H200.384zM66.816 89.024h601.024v22.272H66.816z" fill="#1888FF" p-id="17377"></path></svg>