<?xml version="1.0" standalone="no"?><!DOCTYPE svg PUBLIC "-//W3C//DTD SVG 1.1//EN" "http://www.w3.org/Graphics/SVG/1.1/DTD/svg11.dtd"><svg t="1490867600525" class="icon" style="" viewBox="0 0 1024 1024" version="1.1" xmlns="http://www.w3.org/2000/svg" p-id="8910" xmlns:xlink="http://www.w3.org/1999/xlink" width="200" height="200"><defs><style type="text/css"></style></defs><path d="M875.404172 453.803553l-42.754756-33.8172L832.649416 216.908168c0-46.851051-37.638225-88.505753-85.397972-88.505753l-595.308381 0c-47.77612 0-85.510536 41.654702-85.510536 88.505753l0 617.075127c0 49.492204 37.734416 88.505753 85.510536 88.505753l595.308381 0c47.759747 0 85.397972-39.013549 85.397972-88.505753L832.649416 623.065562l42.754756-36.458353 85.397972-65.080228L875.404172 453.803553zM575.895751 722.183 253.650489 722.183l8.634658-48.656163 264.956488 0 22.384823-126.902248L326.991868 546.624589l8.634658-48.656163L558.275441 497.968425l21.153786-120.605845L314.472739 377.36258l8.634658-48.656163 322.245262 0L575.895751 722.183z" p-id="8911" fill="#d81e06"></path></svg>