<?xml version="1.0" standalone="no"?><!DOCTYPE svg PUBLIC "-//W3C//DTD SVG 1.1//EN" "http://www.w3.org/Graphics/SVG/1.1/DTD/svg11.dtd"><svg t="1490867678414" class="icon" style="" viewBox="0 0 1024 1024" version="1.1" xmlns="http://www.w3.org/2000/svg" p-id="10361" xmlns:xlink="http://www.w3.org/1999/xlink" width="200" height="200"><defs><style type="text/css"></style></defs><path d="M876.095415 452.92044l-42.754756-33.8172L833.340659 216.025055c0-46.89403-37.638225-88.549755-85.414345-88.549755l-595.308381 0c-47.759747 0-85.494163 41.655725-85.494163 88.549755l0 617.030102c0 49.492204 37.734416 88.505753 85.494163 88.505753l595.308381 0c47.77612 0 85.414345-39.013549 85.414345-88.505753l0-210.872708 42.754756-36.458353 85.397972-65.081251L876.095415 452.92044zM638.816291 374.321314 371.749746 374.321314l-22.049179 124.833123 267.082918 0-39.141462 222.145449L253.28568 721.299887l8.28264-46.542013 269.177626 0 22.75219-129.060401L284.305161 545.697473l38.438451-217.918171L647.098931 327.779302 638.816291 374.321314z" p-id="10362" fill="#8a8a8a"></path></svg>