<?xml version="1.0" standalone="no"?><!DOCTYPE svg PUBLIC "-//W3C//DTD SVG 1.1//EN" "http://www.w3.org/Graphics/SVG/1.1/DTD/svg11.dtd"><svg t="1490867717101" class="icon" style="" viewBox="0 0 1024 1024" version="1.1" xmlns="http://www.w3.org/2000/svg" p-id="11308" xmlns:xlink="http://www.w3.org/1999/xlink" width="200" height="200"><defs><style type="text/css"></style></defs><path d="M526.752494 674.712849 550.720372 539.357068 338.656535 539.357068 314.848293 674.712849Z" p-id="11309" fill="#d4237a"></path><path d="M872.086613 452.92044l-42.754756-33.8172L829.331857 216.024032c0-49.492204-37.638225-88.548732-85.414345-88.548732L148.625504 127.4753c-47.77612 0-85.510536 39.056528-85.510536 88.548732l0 617.031125c0 49.448202 37.734416 88.505753 85.510536 88.505753l595.292008 0c47.77612 0 85.414345-39.056528 85.414345-88.505753l0-210.872708 42.754756-36.458353 85.397972-65.080228L872.086613 452.92044zM634.807489 374.277312 367.740944 374.277312l-20.801768 118.491695 267.066545 0-40.372499 228.485855L249.276878 721.254861l69.456908-393.476583 324.356342 0L634.807489 374.277312z" p-id="11310" fill="#d4237a"></path></svg>