<?xml version="1.0" standalone="no"?><!DOCTYPE svg PUBLIC "-//W3C//DTD SVG 1.1//EN" "http://www.w3.org/Graphics/SVG/1.1/DTD/svg11.dtd"><svg t="1490867522803" class="icon" style="" viewBox="0 0 1154 1024" version="1.1" xmlns="http://www.w3.org/2000/svg" p-id="7149" xmlns:xlink="http://www.w3.org/1999/xlink" width="225.390625" height="200"><defs><style type="text/css"></style></defs><path d="M1043.194697 419.673191l-55.13362-47.015527 0-258.526677c0-63.821773-48.53569-114.129667-110.123404-114.129667l-767.669114 0c-61.608828 0-110.268559 50.307894-110.268559 114.129667l0 795.681284c0 63.821773 48.659731 114.187729 110.268559 114.187729l767.669114 0c61.587714 0 110.123404-50.365956 110.123404-114.187729L988.061077 634.53345l55.13362-43.665098 110.123404-87.273455L1043.194697 419.673191zM487.503867 765.700292l-73.650049 0 78.866373-447.381856-81.835441 0 10.474873-60.017407 155.71114 0L487.503867 765.700292z" fill="#1296db" p-id="7150"></path></svg>