<?xml version="1.0" standalone="no"?><!DOCTYPE svg PUBLIC "-//W3C//DTD SVG 1.1//EN" "http://www.w3.org/Graphics/SVG/1.1/DTD/svg11.dtd"><svg t="1490867552264" class="icon" style="" viewBox="0 0 1154 1024" version="1.1" xmlns="http://www.w3.org/2000/svg" p-id="7943" xmlns:xlink="http://www.w3.org/1999/xlink" width="225.390625" height="200"><defs><style type="text/css"></style></defs><path d="M1043.196041 419.672412l-55.133691-43.665155 0-261.876124c0-60.41732-48.535753-114.131134-110.123546-114.131134l-767.670103 0c-61.608907 0-110.268701 53.713814-110.268701 114.131134l0 795.737732c0 63.708371 48.659794 114.131134 110.268701 114.131134l767.670103 0c61.587794 0 110.123546-50.422763 110.123546-114.131134L988.062351 637.883381l55.133691-47.015588 110.123546-83.923134L1043.196041 419.672412zM696.515299 541.978392l-336.205856 0L331.897402 702.956206 668.103258 702.956206l-11.13468 62.742433-415.319093 0 50.474227-286.461361L631.051876 479.237278l27.959423-158.251546-333.484866 0 11.154474-62.743753L746.536907 258.241979 696.515299 541.978392z" p-id="7944" fill="#F87F45"></path></svg>