<?xml version="1.0" standalone="no"?><!DOCTYPE svg PUBLIC "-//W3C//DTD SVG 1.1//EN" "http://www.w3.org/Graphics/SVG/1.1/DTD/svg11.dtd"><svg t="1494334340754" class="icon" style="" viewBox="0 0 1024 1024" version="1.1" xmlns="http://www.w3.org/2000/svg" p-id="2910" xmlns:xlink="http://www.w3.org/1999/xlink" width="200" height="200"><defs><style type="text/css"></style></defs><path d="M864.117829 442.367027L822.520489 406.85117V211.757216c0-48.16534-36.610524-86.11379-83.073049-86.11379H160.125431c-46.462525 0-83.194679 37.94845-83.194679 86.11379v600.363939c0 48.16534 36.732153 86.11379 83.194679 86.11379h579.20038c46.462525 0 83.073049-37.94845 83.073049-86.11379V604.499347l41.597339-32.961635 83.073049-65.801639-82.951419-63.369046zM238.819812 703.38425L290.998931 365.861979h-43.543414l7.905927-45.246229h102.898682l-61.544602 382.89013h-57.895712z m352.847607 0h-244.475591l57.774082-382.89013h244.475591l-57.774082 382.89013z" fill="#13227a" p-id="2911"></path><path d="M553.718969 647.191353l40.745932-270.382706H442.792731l-40.745932 270.382706z" fill="#13227a" p-id="2912"></path></svg>