<?xml version="1.0" standalone="no"?><!DOCTYPE svg PUBLIC "-//W3C//DTD SVG 1.1//EN" "http://www.w3.org/Graphics/SVG/1.1/DTD/svg11.dtd"><svg t="1490867646099" class="icon" style="" viewBox="0 0 1024 1024" version="1.1" xmlns="http://www.w3.org/2000/svg" p-id="9636" xmlns:xlink="http://www.w3.org/1999/xlink" width="200" height="200"><defs><style type="text/css"></style></defs><path d="M874.365516 453.451536l-42.739407-36.407188L831.626109 216.820164c0-49.390897-37.638225-88.396259-85.414345-88.396259l-595.308381 0c-47.77612 0-85.494163 39.005362-85.494163 88.396259l0 616.277972c0 49.382711 37.718043 88.388073 85.494163 88.388073l595.308381 0c47.77612 0 85.414345-39.005362 85.414345-88.388073L831.626109 619.85852l42.739407-33.777291 85.414345-67.6344L874.365516 453.451536zM554.502511 721.486128l-57.288774 0 21.681812-122.605386L272.980743 598.880743l47.77612-270.360568 61.526285 0-38.438451 217.588667 184.402847 0 38.422078-217.588667 57.288774 0L554.502511 721.486128z" p-id="9637" fill="#FFB630"></path></svg>