<?xml version="1.0" standalone="no"?><!DOCTYPE svg PUBLIC "-//W3C//DTD SVG 1.1//EN" "http://www.w3.org/Graphics/SVG/1.1/DTD/svg11.dtd"><svg t="1490867788652" class="icon" style="" viewBox="0 0 1024 1024" version="1.1" xmlns="http://www.w3.org/2000/svg" p-id="13489" xmlns:xlink="http://www.w3.org/1999/xlink" width="200" height="200"><defs><style type="text/css"></style></defs><path d="M583.578805 377.494964 369.579683 377.494964 345.611781 512.938884 559.610903 512.938884Z" p-id="13490" fill="#66FFFF"></path><path d="M874.901068 456.13817l-42.754799-33.905238L832.146269 219.153521c0-46.851098-37.638263-88.505842-85.41443-88.505842l-595.308976 0c-47.759795 0-85.494248 41.654744-85.494248 88.505842l0 617.075744c0 49.492254 37.734454 88.505842 85.494248 88.505842l595.308976 0c47.776168 0 85.41443-39.013588 85.41443-88.505842L832.146269 625.31132l42.754799-36.371409 85.398058-65.168297L874.901068 456.13817zM577.422589 724.47286 251.115499 724.47286l8.10664-46.542059 271.304327 0 20.977798-118.492836L280.199937 559.437964l40.37254-228.48506 326.30709 0L577.422589 724.47286z" p-id="13491" fill="#66FFFF"></path></svg>