<?xml version="1.0" standalone="no"?><!DOCTYPE svg PUBLIC "-//W3C//DTD SVG 1.1//EN" "http://www.w3.org/Graphics/SVG/1.1/DTD/svg11.dtd"><svg t="1490867761522" class="icon" style="" viewBox="0 0 1024 1024" version="1.1" xmlns="http://www.w3.org/2000/svg" p-id="12760" xmlns:xlink="http://www.w3.org/1999/xlink" width="200" height="200"><defs><style type="text/css"></style></defs><path d="M532.734742 677.330466 555.8236 546.20094 337.58718 546.20094 314.323337 677.330466Z" p-id="12761" fill="#9966CC"></path><path d="M875.254769 453.380928l-42.754756-33.8172L832.500013 216.484519c0-46.851051-37.638225-88.505753-85.414345-88.505753L151.777287 127.978766c-47.759747 0-85.494163 41.654702-85.494163 88.505753l0 617.075127c0 49.4042 37.734416 88.505753 85.494163 88.505753l595.308381 0c47.77612 0 85.414345-39.10053 85.414345-88.505753L832.500013 622.641913l42.754756-36.458353 85.397972-65.080228L875.254769 453.380928zM579.966463 721.803353 249.262552 721.803353l69.456908-393.520585 330.703911 0L579.966463 721.803353z" p-id="12762" fill="#9966CC"></path><path d="M586.139046 374.825804 367.726617 374.825804 346.045829 497.544777 564.457234 497.544777Z" p-id="12763" fill="#9966CC"></path></svg>