<?xml version="1.0" standalone="no"?><!DOCTYPE svg PUBLIC "-//W3C//DTD SVG 1.1//EN" "http://www.w3.org/Graphics/SVG/1.1/DTD/svg11.dtd"><svg t="1490867738379" class="icon" style="" viewBox="0 0 1024 1024" version="1.1" xmlns="http://www.w3.org/2000/svg" p-id="12033" xmlns:xlink="http://www.w3.org/1999/xlink" width="200" height="200"><defs><style type="text/css"></style></defs><path d="M876.438735 452.866205l-42.754756-33.905204L833.683978 218.523969c0-49.492204-37.638225-88.505753-85.414345-88.505753l-595.308381 0c-47.759747 0-85.494163 39.013549-85.494163 88.505753l0 616.987123c0 46.938032 37.734416 88.593757 85.494163 88.593757l595.308381 0c47.77612 0 85.414345-41.655725 85.414345-88.593757L833.683978 622.039185l42.754756-33.8172 85.397972-67.722404L876.438735 452.866205zM497.240343 527.062044c-41.060161 64.860217-83.71975 130.46847-127.977743 196.73778l-59.223846 0 224.231971-346.933547L275.837814 376.866277l8.106632-46.542013 341.28899 0C580.975443 396.636552 538.315854 462.245829 497.240343 527.062044z" p-id="12034" fill="#1afa29"></path></svg>