<?xml version="1.0" standalone="no"?><!DOCTYPE svg PUBLIC "-//W3C//DTD SVG 1.1//EN" "http://www.w3.org/Graphics/SVG/1.1/DTD/svg11.dtd"><svg t="1493128438020" class="icon" style="" viewBox="0 0 1024 1024" version="1.1" xmlns="http://www.w3.org/2000/svg" p-id="4929" xmlns:xlink="http://www.w3.org/1999/xlink" width="200" height="200"><defs><style type="text/css"></style></defs><path d="M211.925179 287.302425m-111.376647 0a108.84 108.84 0 1 0 222.753293 0 108.84 108.84 0 1 0-222.753293 0Z" p-id="4930" fill="#11BB30"></path><path d="M299.398416 628.581182l-1.533936-134.441968 194.96439-123.55092-8.435113-13.216 199.541639-126.4786c4.773723-3.025916 6.191003-9.347902 3.165086-14.121626-3.024893-4.771677-9.347902-6.191003-14.121626-3.165086L473.382982 340.121398l-10.121522-15.858176-151.788032 84.875063-50.503231 0-49.046043 47.044456-49.046043-47.043433-76.855412 31.348985 0 188.092889 38.428218 0 0 273.037537L65.7991 901.618719l0 56.630788 131.462101 0L197.261201 713.526853l14.157441 0 1.011027 0 14.157441 0 0 244.722654 131.462101 0 0-56.630788-58.651818 0L299.397393 628.581182z" p-id="4931" fill="#11BB30"></path><path d="M141.430638 63.735603 141.430638 153.671938 177.246355 153.671938 177.246355 99.55132 924.220994 99.55132 924.220994 594.804914 344.517009 594.804914 344.517009 630.620631 960.036711 630.620631 960.036711 63.735603Z" p-id="4932" fill="#11BB30"></path><path d="M738.490919 509.782495l160.659073 0 0 56.281841-160.659073 0 0-56.281841Z" p-id="4933" fill="#11BB30"></path></svg>