<?xml version="1.0" standalone="no"?><!DOCTYPE svg PUBLIC "-//W3C//DTD SVG 1.1//EN" "http://www.w3.org/Graphics/SVG/1.1/DTD/svg11.dtd"><svg t="1494339093961" class="icon" style="" viewBox="0 0 1024 1024" version="1.1" xmlns="http://www.w3.org/2000/svg" p-id="11838" xmlns:xlink="http://www.w3.org/1999/xlink" width="200" height="200"><defs><style type="text/css"></style></defs><path d="M968.981333 698.922667l-79.509333-58.154667 15.36-99.093333-96.533333 14.976-62.464-85.376-62.101334 84.885333-93.354666-14.464 12.437333 80.213333c-33.664-58.005333-96-103.381333-172.714667-124.906666 61.269333-34.858667 102.677333-100.608 102.677334-176.149334 0-111.936-90.730667-202.666667-202.666667-202.666666s-202.666667 90.730667-202.666667 202.666666c0 75.541333 41.408 141.290667 102.677334 176.149334-116.373333 32.64-200.085333 120.277333-200.085334 223.274666h53.333334c0-101.333333 110.698667-183.765333 246.762666-183.765333 111.786667 0 206.314667 55.701333 236.544 131.754667l-36.224 26.496 76.48 55.936-16.512 106.496 94.037334-14.570667 61.418666 83.946667 62.208-85.034667 100.970667 15.658667-15.936-102.72 75.861333-55.552zM180.778667 320.853333c0-82.346667 66.986667-149.333333 149.333333-149.333333s149.333333 66.986667 149.333333 149.333333-66.986667 149.333333-149.333333 149.333334-149.333333-66.986667-149.333333-149.333334z m568.938666 463.381334a85.333333 85.333333 0 1 1 0-170.666667 85.333333 85.333333 0 0 1 0 170.666667z" p-id="11839" fill="#11BB30"></path></svg>